<svg xmlns="http://www.w3.org/2000/svg" xmlns:xlink="http://www.w3.org/1999/xlink" width="500" zoomAndPan="magnify" viewBox="0 0 375 374.999991" height="500" preserveAspectRatio="xMidYMid meet" version="1.0"><defs><clipPath id="747bd2d833"><path d="M 39 40 L 329 40 L 329 334.703125 L 39 334.703125 Z M 39 40 " clip-rule="nonzero"/></clipPath><clipPath id="400efebc05"><path d="M 206.347656 95.261719 C 205.339844 92.953125 202.453125 94.636719 200.289062 94.683594 C 177.113281 94.972656 153.9375 94.347656 130.902344 93.960938 C 121.140625 93.816406 113.253906 93.722656 106.140625 101.367188 L 171.96875 117.140625 L 174.46875 116.371094 Z M 242.316406 90.113281 L 169.707031 132.527344 L 188.558594 124.351562 C 193.558594 126.324219 209.957031 140.699219 213.753906 140.894531 C 216.351562 141.039062 218.996094 136.46875 219.09375 134.066406 C 219.285156 128.96875 214.089844 112.667969 215.628906 109.398438 Z M 258.378906 76.601562 C 267.035156 66.839844 253.183594 64.871094 245.828125 64.390625 C 240.875 64.101562 235.679688 64.675781 231.015625 66.265625 C 224.527344 68.523438 203.847656 83 198.03125 87.855469 C 197.5 88.289062 196.78125 88.71875 196.683594 89.394531 L 214.859375 88.574219 C 227.121094 81.699219 236.882812 69.199219 252.269531 70.734375 C 256.214844 71.121094 259.339844 71.84375 258.378906 76.507812 M 132.105469 141.421875 C 135.472656 140.941406 141.722656 137.910156 144.847656 136.132812 C 146.484375 135.21875 167.304688 121.898438 166.488281 120.839844 C 162.734375 120.503906 157.011719 118.101562 153.457031 119.0625 C 150.328125 119.929688 141.867188 127.71875 137.78125 129.738281 C 126.382812 135.265625 113.351562 126.179688 101.90625 125.363281 C 97.4375 125.023438 95.753906 126.898438 91.953125 128.582031 C 91.570312 129.160156 93.972656 132.046875 94.550781 132.71875 C 99.070312 138.394531 104.023438 143.921875 109.9375 148.152344 C 89.742188 162.867188 72.671875 184.988281 69.496094 210.472656 C 60.699219 280.582031 138.40625 302.269531 193.703125 294.863281 C 244.191406 288.082031 291.316406 259.808594 328.4375 226.195312 C 314.925781 279.667969 268.285156 322.03125 214.1875 332.03125 C 91.808594 354.585938 -2.292969 225.570312 57.574219 116.320312 C 104.648438 30.441406 224.09375 13.417969 292.46875 84.488281 C 293.625 85.691406 301.222656 94.25 301.367188 94.921875 C 301.511719 95.453125 301.460938 95.933594 301.125 96.414062 C 280.113281 119.929688 257.222656 142.046875 231.59375 160.558594 C 207.261719 178.160156 166.824219 201.769531 136 199.222656 C 109.554688 197.058594 105.273438 171.425781 118.257812 152.097656 C 119.316406 151.136719 124.84375 152.433594 127.007812 152.335938 C 132.632812 152.144531 139.078125 150.171875 144.03125 147.480469 C 143.984375 146.472656 137.730469 147.867188 136.625 147.867188 C 129.652344 147.816406 121.910156 144.355469 115.757812 141.375 C 115.851562 139.691406 118.257812 141.375 118.640625 141.375 C 122.679688 141.375 128.402344 141.855469 132.152344 141.375 " clip-rule="nonzero"/></clipPath><clipPath id="5c3a730e4a"><path d="M 0 0 L 289.558594 0 L 289.558594 294.703125 L 0 294.703125 Z M 0 0 " clip-rule="nonzero"/></clipPath><clipPath id="e22b8abee4"><path d="M 167.347656 55.261719 C 166.339844 52.953125 163.453125 54.636719 161.289062 54.683594 C 138.113281 54.972656 114.9375 54.347656 91.902344 53.960938 C 82.140625 53.816406 74.253906 53.722656 67.140625 61.367188 L 132.96875 77.140625 L 135.46875 76.371094 Z M 203.316406 50.113281 L 130.707031 92.527344 L 149.558594 84.351562 C 154.558594 86.324219 170.957031 100.699219 174.753906 100.894531 C 177.351562 101.039062 179.996094 96.46875 180.09375 94.066406 C 180.285156 88.96875 175.089844 72.667969 176.628906 69.398438 Z M 219.378906 36.601562 C 228.035156 26.839844 214.183594 24.871094 206.828125 24.390625 C 201.875 24.101562 196.679688 24.675781 192.015625 26.265625 C 185.527344 28.523438 164.847656 43 159.03125 47.855469 C 158.5 48.289062 157.78125 48.71875 157.683594 49.394531 L 175.859375 48.574219 C 188.121094 41.699219 197.882812 29.199219 213.269531 30.734375 C 217.214844 31.121094 220.339844 31.84375 219.378906 36.507812 M 93.105469 101.421875 C 96.472656 100.941406 102.722656 97.910156 105.847656 96.132812 C 107.484375 95.21875 128.304688 81.898438 127.488281 80.839844 C 123.734375 80.503906 118.011719 78.101562 114.457031 79.0625 C 111.328125 79.929688 102.867188 87.71875 98.78125 89.738281 C 87.382812 95.265625 74.351562 86.179688 62.90625 85.363281 C 58.4375 85.023438 56.753906 86.898438 52.953125 88.582031 C 52.570312 89.160156 54.972656 92.046875 55.550781 92.71875 C 60.070312 98.394531 65.023438 103.921875 70.9375 108.152344 C 50.742188 122.867188 33.671875 144.988281 30.496094 170.472656 C 21.699219 240.582031 99.40625 262.269531 154.703125 254.863281 C 205.191406 248.082031 252.316406 219.808594 289.4375 186.195312 C 275.925781 239.667969 229.285156 282.03125 175.1875 292.03125 C 52.808594 314.585938 -41.292969 185.570312 18.574219 76.320312 C 65.648438 -9.558594 185.09375 -26.582031 253.46875 44.488281 C 254.625 45.691406 262.222656 54.25 262.367188 54.921875 C 262.511719 55.453125 262.460938 55.933594 262.125 56.414062 C 241.113281 79.929688 218.222656 102.046875 192.59375 120.558594 C 168.261719 138.160156 127.824219 161.769531 97 159.222656 C 70.554688 157.058594 66.273438 131.425781 79.257812 112.097656 C 80.316406 111.136719 85.84375 112.433594 88.007812 112.335938 C 93.632812 112.144531 100.078125 110.171875 105.03125 107.480469 C 104.984375 106.472656 98.730469 107.867188 97.625 107.867188 C 90.652344 107.816406 82.910156 104.355469 76.757812 101.375 C 76.851562 99.691406 79.257812 101.375 79.640625 101.375 C 83.679688 101.375 89.402344 101.855469 93.152344 101.375 " clip-rule="nonzero"/></clipPath><clipPath id="87ead4be8e"><rect x="0" width="290" y="0" height="295"/></clipPath><clipPath id="ce2de89e36"><path d="M 94.101562 127.28125 L 324 127.28125 L 324 250.398438 L 94.101562 250.398438 Z M 94.101562 127.28125 " clip-rule="nonzero"/></clipPath><clipPath id="e817fa31af"><path d="M 96.859375 183.0625 L 99.261719 194.941406 C 116.140625 230.859375 168.746094 222.832031 199.425781 212.300781 C 244.867188 196.671875 284.679688 163.589844 315.648438 127.71875 C 317.425781 127.667969 323.726562 152.578125 323.871094 155.414062 C 324.015625 158.347656 320.746094 161.28125 318.675781 163.589844 C 276.9375 210.328125 188.703125 271.398438 123.640625 242.980469 C 99.070312 232.253906 89.695312 208.597656 96.859375 183.0625 " clip-rule="nonzero"/></clipPath><clipPath id="60eb46a58a"><path d="M 0.101562 0.441406 L 230 0.441406 L 230 123.398438 L 0.101562 123.398438 Z M 0.101562 0.441406 " clip-rule="nonzero"/></clipPath><clipPath id="ca6380a4a6"><path d="M 2.859375 56.0625 L 5.261719 67.941406 C 22.140625 103.859375 74.746094 95.832031 105.425781 85.300781 C 150.867188 69.671875 190.679688 36.589844 221.648438 0.71875 C 223.425781 0.667969 229.726562 25.578125 229.871094 28.414062 C 230.015625 31.347656 226.746094 34.28125 224.675781 36.589844 C 182.9375 83.328125 94.703125 144.398438 29.640625 115.980469 C 5.070312 105.253906 -4.304688 81.597656 2.859375 56.0625 " clip-rule="nonzero"/></clipPath><clipPath id="aa924f6d6d"><rect x="0" width="230" y="0" height="124"/></clipPath></defs><g clip-path="url(#747bd2d833)"><g clip-path="url(#400efebc05)"><g transform="matrix(1, 0, 0, 1, 39, 40)"><g clip-path="url(#87ead4be8e)"><g clip-path="url(#5c3a730e4a)"><g clip-path="url(#e22b8abee4)"><rect x="-121.5" width="540" fill="#ffffff" height="539.999987" y="-122.499998" fill-opacity="1"/></g></g></g></g></g></g><g clip-path="url(#ce2de89e36)"><g clip-path="url(#e817fa31af)"><g transform="matrix(1, 0, 0, 1, 94, 127)"><g clip-path="url(#aa924f6d6d)"><g clip-path="url(#60eb46a58a)"><g clip-path="url(#ca6380a4a6)"><rect x="-176.5" width="540" fill="#ffffff" height="539.999987" y="-209.499998" fill-opacity="1"/></g></g></g></g></g></g></svg>