<svg xmlns="http://www.w3.org/2000/svg" xmlns:xlink="http://www.w3.org/1999/xlink" width="476" zoomAndPan="magnify" viewBox="0 0 357 248.999984" height="332" preserveAspectRatio="xMidYMid meet" version="1.0"><defs><clipPath id="15b1e24698"><path d="M 65 15.367188 L 109 15.367188 L 109 72.5625 L 65 72.5625 Z M 65 15.367188 " clip-rule="nonzero"/></clipPath><clipPath id="4657f7ce41"><path d="M 79.996094 29.867188 L 79.996094 37.011719 L 105.445312 37.011719 L 105.445312 51.105469 L 79.996094 51.105469 L 79.996094 72.363281 L 65.269531 72.363281 L 65.269531 15.859375 L 108.921875 15.773438 L 108.921875 29.867188 Z M 79.996094 29.867188 " clip-rule="nonzero"/></clipPath><clipPath id="f0d31e20d1"><path d="M 0.0390625 0.558594 L 43.960938 0.558594 L 43.960938 57.441406 L 0.0390625 57.441406 Z M 0.0390625 0.558594 " clip-rule="nonzero"/></clipPath><clipPath id="46039bf627"><path d="M 14.996094 14.867188 L 14.996094 22.011719 L 40.445312 22.011719 L 40.445312 36.105469 L 14.996094 36.105469 L 14.996094 57.363281 L 0.269531 57.363281 L 0.269531 0.859375 L 43.921875 0.773438 L 43.921875 14.867188 Z M 14.996094 14.867188 " clip-rule="nonzero"/></clipPath><clipPath id="1673fb2587"><rect x="0" width="44" y="0" height="58"/></clipPath><clipPath id="ba5900cc3b"><path d="M 131.667969 15.367188 L 185.285156 15.367188 L 185.285156 95 L 131.667969 95 Z M 131.667969 15.367188 " clip-rule="nonzero"/></clipPath><clipPath id="9269927fde"><path d="M 185.226562 15.796875 L 185.226562 68.675781 C 185.226562 72.300781 184.53125 75.691406 183.164062 78.851562 C 181.792969 82.011719 179.941406 84.75 177.621094 87.066406 C 175.304688 89.386719 172.566406 91.238281 169.40625 92.628906 C 166.246094 94.019531 162.855469 94.695312 159.230469 94.695312 C 153.941406 94.695312 149.179688 93.261719 144.96875 90.394531 C 140.753906 87.53125 137.613281 83.84375 135.507812 79.355469 L 151.394531 70.867188 C 151.898438 72.613281 152.867188 74.046875 154.28125 75.164062 C 155.691406 76.28125 157.335938 76.847656 159.230469 76.847656 C 161.546875 76.847656 163.484375 76.070312 165.046875 74.511719 C 166.605469 72.953125 167.382812 71.015625 167.382812 68.695312 L 167.382812 63.554688 C 165.425781 65.21875 163.296875 66.441406 161.019531 67.199219 C 158.746094 67.957031 156.40625 68.339844 154.003906 68.339844 C 151.183594 68.339844 148.445312 67.789062 145.789062 66.714844 C 143.132812 65.640625 140.773438 63.957031 138.667969 61.703125 C 136.5625 59.449219 134.875 56.667969 133.613281 53.316406 C 132.347656 49.96875 131.714844 46.113281 131.714844 41.667969 L 131.714844 15.796875 L 149.558594 15.796875 L 149.558594 41.6875 C 149.558594 44.152344 150.425781 46.257812 152.171875 48.007812 C 153.921875 49.757812 156.007812 50.621094 158.492188 50.621094 C 160.980469 50.621094 163.066406 49.757812 164.792969 48.007812 C 166.519531 46.257812 167.40625 44.152344 167.40625 41.6875 L 167.40625 15.796875 Z M 185.226562 15.796875 " clip-rule="nonzero"/></clipPath><clipPath id="2b73d9efb5"><path d="M 0.667969 0.558594 L 54.28125 0.558594 L 54.28125 79.761719 L 0.667969 79.761719 Z M 0.667969 0.558594 " clip-rule="nonzero"/></clipPath><clipPath id="37c71c4692"><path d="M 54.226562 0.796875 L 54.226562 53.675781 C 54.226562 57.300781 53.53125 60.691406 52.164062 63.851562 C 50.792969 67.011719 48.941406 69.75 46.621094 72.066406 C 44.304688 74.386719 41.566406 76.238281 38.40625 77.628906 C 35.246094 79.019531 31.855469 79.695312 28.230469 79.695312 C 22.941406 79.695312 18.179688 78.261719 13.96875 75.394531 C 9.753906 72.53125 6.613281 68.84375 4.507812 64.355469 L 20.394531 55.867188 C 20.898438 57.613281 21.867188 59.046875 23.28125 60.164062 C 24.691406 61.28125 26.335938 61.847656 28.230469 61.847656 C 30.546875 61.847656 32.484375 61.070312 34.046875 59.511719 C 35.605469 57.953125 36.382812 56.015625 36.382812 53.695312 L 36.382812 48.554688 C 34.425781 50.21875 32.296875 51.441406 30.019531 52.199219 C 27.746094 52.957031 25.40625 53.339844 23.003906 53.339844 C 20.183594 53.339844 17.445312 52.789062 14.789062 51.714844 C 12.132812 50.640625 9.773438 48.957031 7.667969 46.703125 C 5.5625 44.449219 3.875 41.667969 2.613281 38.316406 C 1.347656 34.96875 0.714844 31.113281 0.714844 26.667969 L 0.714844 0.796875 L 18.558594 0.796875 L 18.558594 26.6875 C 18.558594 29.152344 19.425781 31.257812 21.171875 33.007812 C 22.921875 34.757812 25.007812 35.621094 27.492188 35.621094 C 29.980469 35.621094 32.066406 34.757812 33.792969 33.007812 C 35.519531 31.257812 36.40625 29.152344 36.40625 26.6875 L 36.40625 0.796875 Z M 54.226562 0.796875 " clip-rule="nonzero"/></clipPath><clipPath id="d40e2e37a2"><rect x="0" width="55" y="0" height="80"/></clipPath><clipPath id="061afe9a2b"><path d="M 10.128906 83 L 59.578125 83 L 59.578125 146.4375 L 10.128906 146.4375 Z M 10.128906 83 " clip-rule="nonzero"/></clipPath><clipPath id="55c3837c1b"><path d="M 26.945312 98.992188 L 26.945312 106.957031 L 55.28125 106.957031 L 55.28125 122.671875 L 26.945312 122.671875 L 26.945312 130.53125 L 59.160156 130.53125 L 59.160156 146.351562 L 10.535156 146.351562 L 10.535156 83.378906 L 59.160156 83.273438 L 59.160156 98.992188 Z M 26.945312 98.992188 " clip-rule="nonzero"/></clipPath><clipPath id="7e26af7c69"><path d="M 0.320312 0.238281 L 49.28125 0.238281 L 49.28125 63.359375 L 0.320312 63.359375 Z M 0.320312 0.238281 " clip-rule="nonzero"/></clipPath><clipPath id="676a761fc5"><path d="M 16.945312 15.992188 L 16.945312 23.957031 L 45.28125 23.957031 L 45.28125 39.671875 L 16.945312 39.671875 L 16.945312 47.53125 L 49.160156 47.53125 L 49.160156 63.351562 L 0.535156 63.351562 L 0.535156 0.378906 L 49.160156 0.273438 L 49.160156 15.992188 Z M 16.945312 15.992188 " clip-rule="nonzero"/></clipPath><clipPath id="20393614fc"><rect x="0" width="50" y="0" height="64"/></clipPath><clipPath id="39e431b452"><path d="M 64.742188 83.464844 L 81.046875 83.464844 L 81.046875 146.226562 L 64.742188 146.226562 Z M 64.742188 83.464844 " clip-rule="nonzero"/></clipPath><clipPath id="26781ea804"><path d="M 0.742188 0.464844 L 17.046875 0.464844 L 17.046875 63.226562 L 0.742188 63.226562 Z M 0.742188 0.464844 " clip-rule="nonzero"/></clipPath><clipPath id="c898ee9b30"><rect x="0" width="18" y="0" height="64"/></clipPath><clipPath id="c401b8d9d9"><path d="M 87 80.902344 L 104 80.902344 L 104 146.4375 L 87 146.4375 Z M 87 80.902344 " clip-rule="nonzero"/></clipPath><clipPath id="13472d2724"><path d="M 87.515625 99.074219 L 103.820312 99.074219 L 103.820312 146.226562 L 87.515625 146.226562 Z M 101.441406 94.90625 C 99.839844 96.503906 97.921875 97.285156 95.667969 97.285156 C 93.414062 97.285156 91.496094 96.484375 89.894531 94.90625 C 88.296875 93.324219 87.515625 91.386719 87.515625 89.132812 C 87.515625 86.878906 88.316406 84.960938 89.894531 83.359375 C 91.476562 81.757812 93.414062 80.980469 95.667969 80.980469 C 97.921875 80.980469 99.839844 81.78125 101.441406 83.359375 C 103.042969 84.941406 103.820312 86.878906 103.820312 89.132812 C 103.820312 91.386719 103.023438 93.304688 101.441406 94.90625 " clip-rule="nonzero"/></clipPath><clipPath id="f39cfdd159"><path d="M 0.359375 0.902344 L 16.921875 0.902344 L 16.921875 66.359375 L 0.359375 66.359375 Z M 0.359375 0.902344 " clip-rule="nonzero"/></clipPath><clipPath id="989efbbce7"><path d="M 0.515625 19.074219 L 16.820312 19.074219 L 16.820312 66.226562 L 0.515625 66.226562 Z M 14.441406 14.90625 C 12.839844 16.503906 10.921875 17.285156 8.667969 17.285156 C 6.414062 17.285156 4.496094 16.484375 2.894531 14.90625 C 1.296875 13.324219 0.515625 11.386719 0.515625 9.132812 C 0.515625 6.878906 1.316406 4.960938 2.894531 3.359375 C 4.476562 1.757812 6.414062 0.980469 8.667969 0.980469 C 10.921875 0.980469 12.839844 1.78125 14.441406 3.359375 C 16.042969 4.941406 16.820312 6.878906 16.820312 9.132812 C 16.820312 11.386719 16.023438 13.304688 14.441406 14.90625 " clip-rule="nonzero"/></clipPath><clipPath id="bca585a757"><rect x="0" width="17" y="0" height="67"/></clipPath><clipPath id="82c056133b"><path d="M 107.835938 15.367188 L 136.433594 15.367188 L 136.433594 146.4375 L 107.835938 146.4375 Z M 107.835938 15.367188 " clip-rule="nonzero"/></clipPath><clipPath id="825abba467"><path d="M 128.199219 121.765625 C 128.199219 124.019531 128.976562 125.9375 130.535156 127.539062 C 132.09375 129.140625 134.035156 129.917969 136.351562 129.917969 L 136.351562 146.226562 C 132.980469 146.226562 129.777344 145.574219 126.808594 144.289062 C 123.835938 143.003906 121.246094 141.253906 119.054688 139.0625 C 116.863281 136.871094 115.136719 134.28125 113.828125 131.308594 C 112.523438 128.339844 111.890625 125.136719 111.890625 121.765625 L 111.890625 112.707031 L 107.992188 112.707031 L 107.992188 98.296875 L 111.871094 98.296875 L 111.871094 15.898438 L 128.175781 15.898438 L 128.175781 98.296875 L 136.328125 98.296875 L 136.328125 112.726562 L 128.199219 112.726562 Z M 128.199219 121.765625 " clip-rule="nonzero"/></clipPath><clipPath id="0a5e8b23c0"><path d="M 0.835938 0.800781 L 29.433594 0.800781 L 29.433594 131.359375 L 0.835938 131.359375 Z M 0.835938 0.800781 " clip-rule="nonzero"/></clipPath><clipPath id="ffe47ff811"><path d="M 21.199219 106.765625 C 21.199219 109.019531 21.976562 110.9375 23.535156 112.539062 C 25.09375 114.140625 27.035156 114.917969 29.351562 114.917969 L 29.351562 131.226562 C 25.980469 131.226562 22.777344 130.574219 19.808594 129.289062 C 16.835938 128.003906 14.246094 126.253906 12.054688 124.0625 C 9.863281 121.871094 8.136719 119.28125 6.828125 116.308594 C 5.523438 113.339844 4.890625 110.136719 4.890625 106.765625 L 4.890625 97.707031 L 0.992188 97.707031 L 0.992188 83.296875 L 4.871094 83.296875 L 4.871094 0.898438 L 21.175781 0.898438 L 21.175781 83.296875 L 29.328125 83.296875 L 29.328125 97.726562 L 21.199219 97.726562 Z M 21.199219 106.765625 " clip-rule="nonzero"/></clipPath><clipPath id="5613a7c39d"><rect x="0" width="30" y="0" height="132"/></clipPath><clipPath id="e5a017200c"><path d="M 139.410156 98 L 182.902344 98 L 182.902344 147.628906 L 139.410156 147.628906 Z M 139.410156 98 " clip-rule="nonzero"/></clipPath><clipPath id="7e8ba6b406"><path d="M 166.078125 119.386719 C 165.953125 117.785156 165.425781 116.625 164.539062 115.847656 C 163.65625 115.066406 162.726562 114.707031 161.800781 114.707031 C 160.875 114.707031 159.90625 115.109375 158.914062 115.910156 C 157.925781 116.710938 157.1875 117.867188 156.722656 119.386719 Z M 161.800781 98.085938 C 164.457031 98.085938 167.109375 98.589844 169.765625 99.625 C 172.417969 100.65625 174.757812 102.171875 176.78125 104.195312 C 178.800781 106.21875 180.339844 108.765625 181.414062 111.863281 C 182.488281 114.960938 182.742188 118.542969 182.214844 122.652344 L 181.710938 126.042969 L 156.933594 126.042969 C 157.585938 127.496094 158.597656 128.675781 159.925781 129.582031 C 161.253906 130.488281 162.75 130.929688 164.390625 130.929688 L 180.59375 130.929688 L 180.59375 147.238281 L 164.390625 147.238281 C 161 147.238281 157.820312 146.582031 154.847656 145.300781 C 151.878906 144.015625 149.265625 142.242188 147.09375 140.074219 C 144.925781 137.902344 143.15625 135.292969 141.871094 132.320312 C 140.585938 129.351562 139.933594 126.148438 139.933594 122.777344 C 139.933594 118.667969 140.585938 115.066406 141.871094 111.992188 C 143.15625 108.914062 144.863281 106.367188 146.949219 104.320312 C 149.035156 102.277344 151.371094 100.761719 153.964844 99.6875 C 156.554688 98.613281 159.167969 98.085938 161.820312 98.085938 " clip-rule="nonzero"/></clipPath><clipPath id="19fa9952ab"><path d="M 0.921875 0 L 43.878906 0 L 43.878906 49.320312 L 0.921875 49.320312 Z M 0.921875 0 " clip-rule="nonzero"/></clipPath><clipPath id="c55f0bb1a0"><path d="M 27.078125 21.386719 C 26.953125 19.785156 26.425781 18.625 25.539062 17.847656 C 24.65625 17.066406 23.726562 16.707031 22.800781 16.707031 C 21.875 16.707031 20.90625 17.109375 19.914062 17.910156 C 18.925781 18.710938 18.1875 19.867188 17.722656 21.386719 Z M 22.800781 0.0859375 C 25.457031 0.0859375 28.109375 0.589844 30.765625 1.625 C 33.417969 2.65625 35.757812 4.171875 37.78125 6.195312 C 39.800781 8.21875 41.339844 10.765625 42.414062 13.863281 C 43.488281 16.960938 43.742188 20.542969 43.214844 24.652344 L 42.710938 28.042969 L 17.933594 28.042969 C 18.585938 29.496094 19.597656 30.675781 20.925781 31.582031 C 22.253906 32.488281 23.75 32.929688 25.390625 32.929688 L 41.59375 32.929688 L 41.59375 49.238281 L 25.390625 49.238281 C 22 49.238281 18.820312 48.582031 15.847656 47.300781 C 12.878906 46.015625 10.265625 44.242188 8.09375 42.074219 C 5.925781 39.902344 4.15625 37.292969 2.871094 34.320312 C 1.585938 31.351562 0.933594 28.148438 0.933594 24.777344 C 0.933594 20.667969 1.585938 17.066406 2.871094 13.992188 C 4.15625 10.914062 5.863281 8.367188 7.949219 6.320312 C 10.035156 4.277344 12.371094 2.761719 14.964844 1.6875 C 17.554688 0.613281 20.167969 0.0859375 22.820312 0.0859375 " clip-rule="nonzero"/></clipPath><clipPath id="46ae127284"><rect x="0" width="44" y="0" height="50"/></clipPath><clipPath id="e9dcafd131"><path d="M 207.328125 10.425781 L 347 10.425781 L 347 152 L 207.328125 152 Z M 207.328125 10.425781 " clip-rule="nonzero"/></clipPath><clipPath id="ca72e125c3"><path d="M 288.003906 37.316406 C 287.519531 36.21875 286.152344 37.019531 285.097656 37.019531 C 274.015625 37.167969 262.890625 36.851562 251.851562 36.683594 C 247.175781 36.621094 243.40625 36.554688 239.992188 40.242188 L 271.53125 47.804688 L 272.710938 47.425781 Z M 305.238281 34.851562 L 270.457031 55.160156 L 279.492188 51.242188 C 281.875 52.1875 289.753906 59.078125 291.566406 59.183594 C 292.808594 59.246094 294.09375 57.054688 294.136719 55.917969 C 294.242188 53.472656 291.734375 45.679688 292.472656 44.097656 Z M 312.929688 28.382812 C 317.078125 23.703125 310.441406 22.757812 306.921875 22.546875 C 304.5625 22.398438 302.078125 22.671875 299.84375 23.453125 C 296.746094 24.527344 286.824219 31.457031 284.042969 33.796875 C 283.8125 34.007812 283.433594 34.195312 283.410156 34.535156 L 292.113281 34.15625 C 297.992188 30.847656 302.667969 24.882812 310.042969 25.621094 C 311.9375 25.8125 313.414062 26.148438 312.96875 28.382812 M 252.464844 59.476562 C 254.066406 59.265625 257.078125 57.792969 258.550781 56.949219 C 259.332031 56.507812 269.296875 50.144531 268.917969 49.617188 C 267.125 49.46875 264.367188 48.3125 262.679688 48.777344 C 261.1875 49.175781 257.121094 52.925781 255.160156 53.875 C 249.703125 56.527344 243.46875 52.1875 237.96875 51.765625 C 235.820312 51.597656 235.019531 52.503906 233.207031 53.304688 C 233.019531 53.578125 234.175781 54.96875 234.449219 55.285156 C 236.621094 58.003906 238.980469 60.65625 241.824219 62.679688 C 232.132812 69.714844 223.980469 80.335938 222.441406 92.53125 C 218.226562 126.113281 255.433594 136.5 281.9375 132.941406 C 306.125 129.695312 328.6875 116.171875 346.445312 100.074219 C 339.980469 125.671875 317.648438 145.980469 291.734375 150.742188 C 233.144531 161.59375 188.082031 99.800781 216.753906 47.46875 C 239.296875 6.324219 296.515625 -1.808594 329.234375 32.238281 C 329.804688 32.828125 333.425781 36.914062 333.511719 37.230469 C 333.574219 37.484375 333.554688 37.714844 333.40625 37.925781 C 323.335938 49.195312 312.378906 59.773438 300.097656 68.640625 C 288.445312 77.070312 269.066406 88.382812 254.296875 87.160156 C 241.632812 86.128906 239.570312 73.847656 245.804688 64.597656 C 246.3125 64.132812 248.945312 64.746094 250 64.722656 C 252.714844 64.640625 255.792969 63.691406 258.152344 62.40625 C 258.128906 61.921875 255.117188 62.597656 254.613281 62.597656 C 251.261719 62.554688 247.574219 60.910156 244.605469 59.476562 C 244.648438 58.675781 245.804688 59.476562 245.996094 59.476562 C 247.933594 59.476562 250.652344 59.710938 252.464844 59.476562 " clip-rule="nonzero"/></clipPath><clipPath id="386db29c66"><path d="M 0.328125 0.425781 L 139.558594 0.425781 L 139.558594 142 L 0.328125 142 Z M 0.328125 0.425781 " clip-rule="nonzero"/></clipPath><clipPath id="5569f849e3"><path d="M 81.003906 27.316406 C 80.519531 26.21875 79.152344 27.019531 78.097656 27.019531 C 67.015625 27.167969 55.890625 26.851562 44.851562 26.683594 C 40.175781 26.621094 36.40625 26.554688 32.992188 30.242188 L 64.53125 37.804688 L 65.710938 37.425781 Z M 98.238281 24.851562 L 63.457031 45.160156 L 72.492188 41.242188 C 74.875 42.1875 82.753906 49.078125 84.566406 49.183594 C 85.808594 49.246094 87.09375 47.054688 87.136719 45.917969 C 87.242188 43.472656 84.734375 35.679688 85.472656 34.097656 Z M 105.929688 18.382812 C 110.078125 13.703125 103.441406 12.757812 99.921875 12.546875 C 97.5625 12.398438 95.078125 12.671875 92.84375 13.453125 C 89.746094 14.527344 79.824219 21.457031 77.042969 23.796875 C 76.8125 24.007812 76.433594 24.195312 76.410156 24.535156 L 85.113281 24.15625 C 90.992188 20.847656 95.667969 14.882812 103.042969 15.621094 C 104.9375 15.8125 106.414062 16.148438 105.96875 18.382812 M 45.464844 49.476562 C 47.066406 49.265625 50.078125 47.792969 51.550781 46.949219 C 52.332031 46.507812 62.296875 40.144531 61.917969 39.617188 C 60.125 39.46875 57.367188 38.3125 55.679688 38.777344 C 54.1875 39.175781 50.121094 42.925781 48.160156 43.875 C 42.703125 46.527344 36.46875 42.1875 30.96875 41.765625 C 28.820312 41.597656 28.019531 42.503906 26.207031 43.304688 C 26.019531 43.578125 27.175781 44.96875 27.449219 45.285156 C 29.621094 48.003906 31.980469 50.65625 34.824219 52.679688 C 25.132812 59.714844 16.980469 70.335938 15.441406 82.53125 C 11.226562 116.113281 48.433594 126.5 74.9375 122.941406 C 99.125 119.695312 121.6875 106.171875 139.445312 90.074219 C 132.980469 115.671875 110.648438 135.980469 84.734375 140.742188 C 26.144531 151.59375 -18.917969 89.800781 9.753906 37.46875 C 32.296875 -3.675781 89.515625 -11.808594 122.234375 22.238281 C 122.804688 22.828125 126.425781 26.914062 126.511719 27.230469 C 126.574219 27.484375 126.554688 27.714844 126.40625 27.925781 C 116.335938 39.195312 105.378906 49.773438 93.097656 58.640625 C 81.445312 67.070312 62.066406 78.382812 47.296875 77.160156 C 34.632812 76.128906 32.570312 63.847656 38.804688 54.597656 C 39.3125 54.132812 41.945312 54.746094 43 54.722656 C 45.714844 54.640625 48.792969 53.691406 51.152344 52.40625 C 51.128906 51.921875 48.117188 52.597656 47.613281 52.597656 C 44.261719 52.554688 40.574219 50.910156 37.605469 49.476562 C 37.648438 48.675781 38.804688 49.476562 38.996094 49.476562 C 40.933594 49.476562 43.652344 49.710938 45.464844 49.476562 " clip-rule="nonzero"/></clipPath><clipPath id="78468212b0"><rect x="0" width="140" y="0" height="142"/></clipPath><clipPath id="32be0aff46"><path d="M 234.144531 52.832031 L 344.527344 52.832031 L 344.527344 112 L 234.144531 112 Z M 234.144531 52.832031 " clip-rule="nonzero"/></clipPath><clipPath id="8b087fc0a7"><path d="M 235.546875 79.367188 L 236.703125 85.054688 C 244.792969 102.246094 269.972656 98.410156 284.65625 93.355469 C 306.398438 85.855469 325.503906 70.03125 340.316406 52.839844 C 341.160156 52.820312 344.191406 64.746094 344.253906 66.113281 C 344.320312 67.527344 342.761719 68.9375 341.769531 70.03125 C 321.777344 92.429688 279.515625 121.667969 248.355469 108.058594 C 236.597656 102.917969 232.089844 91.605469 235.523438 79.367188 " clip-rule="nonzero"/></clipPath><clipPath id="2dd7fa8a82"><path d="M 0.144531 0.832031 L 110.398438 0.832031 L 110.398438 60 L 0.144531 60 Z M 0.144531 0.832031 " clip-rule="nonzero"/></clipPath><clipPath id="7b2c64d280"><path d="M 1.546875 27.367188 L 2.703125 33.054688 C 10.792969 50.246094 35.972656 46.410156 50.65625 41.355469 C 72.398438 33.855469 91.503906 18.03125 106.316406 0.839844 C 107.160156 0.820312 110.191406 12.746094 110.253906 14.113281 C 110.320312 15.527344 108.761719 16.9375 107.769531 18.03125 C 87.777344 40.429688 45.515625 69.667969 14.355469 56.058594 C 2.597656 50.917969 -1.910156 39.605469 1.523438 27.367188 " clip-rule="nonzero"/></clipPath><clipPath id="68fc80d0bc"><rect x="0" width="111" y="0" height="60"/></clipPath><clipPath id="bfbc21c845"><rect x="0" width="357" y="0" height="163"/></clipPath></defs><g transform="matrix(1, 0, 0, 1, -0, 43)"><g clip-path="url(#bfbc21c845)"><g clip-path="url(#15b1e24698)"><g clip-path="url(#4657f7ce41)"><g transform="matrix(1, 0, 0, 1, 65, 15)"><g clip-path="url(#1673fb2587)"><g clip-path="url(#f0d31e20d1)"><g clip-path="url(#46039bf627)"><rect x="-194.948" width="616.896" fill="#090f10" y="-148.635994" height="430.271972" fill-opacity="1"/></g></g></g></g></g></g><g clip-path="url(#ba5900cc3b)"><g clip-path="url(#9269927fde)"><g transform="matrix(1, 0, 0, 1, 131, 15)"><g clip-path="url(#d40e2e37a2)"><g clip-path="url(#2b73d9efb5)"><g clip-path="url(#37c71c4692)"><rect x="-260.948" width="616.896" fill="#090f10" y="-148.635994" height="430.271972" fill-opacity="1"/></g></g></g></g></g></g><g clip-path="url(#061afe9a2b)"><g clip-path="url(#55c3837c1b)"><g transform="matrix(1, 0, 0, 1, 10, 83)"><g clip-path="url(#20393614fc)"><g clip-path="url(#7e26af7c69)"><g clip-path="url(#676a761fc5)"><rect x="-139.948" width="616.896" fill="#090f10" y="-216.635994" height="430.271972" fill-opacity="1"/></g></g></g></g></g></g><g clip-path="url(#39e431b452)"><g transform="matrix(1, 0, 0, 1, 64, 83)"><g clip-path="url(#c898ee9b30)"><g clip-path="url(#26781ea804)"><rect x="-193.948" width="616.896" fill="#090f10" y="-216.635994" height="430.271972" fill-opacity="1"/></g></g></g></g><g clip-path="url(#c401b8d9d9)"><g clip-path="url(#13472d2724)"><g transform="matrix(1, 0, 0, 1, 87, 80)"><g clip-path="url(#bca585a757)"><g clip-path="url(#f39cfdd159)"><g clip-path="url(#989efbbce7)"><rect x="-216.948" width="616.896" fill="#090f10" y="-213.635994" height="430.271972" fill-opacity="1"/></g></g></g></g></g></g><g clip-path="url(#82c056133b)"><g clip-path="url(#825abba467)"><g transform="matrix(1, 0, 0, 1, 107, 15)"><g clip-path="url(#5613a7c39d)"><g clip-path="url(#0a5e8b23c0)"><g clip-path="url(#ffe47ff811)"><rect x="-236.948" width="616.896" fill="#090f10" y="-148.635994" height="430.271972" fill-opacity="1"/></g></g></g></g></g></g><g clip-path="url(#e5a017200c)"><g clip-path="url(#7e8ba6b406)"><g transform="matrix(1, 0, 0, 1, 139, 98)"><g clip-path="url(#46ae127284)"><g clip-path="url(#19fa9952ab)"><g clip-path="url(#c55f0bb1a0)"><rect x="-268.948" width="616.896" fill="#090f10" y="-231.635994" height="430.271972" fill-opacity="1"/></g></g></g></g></g></g><g clip-path="url(#e9dcafd131)"><g clip-path="url(#ca72e125c3)"><g transform="matrix(1, 0, 0, 1, 207, 10)"><g clip-path="url(#78468212b0)"><g clip-path="url(#386db29c66)"><g clip-path="url(#5569f849e3)"><rect x="-336.948" width="616.896" fill="#090f10" y="-143.635994" height="430.271972" fill-opacity="1"/></g></g></g></g></g></g><g clip-path="url(#32be0aff46)"><g clip-path="url(#8b087fc0a7)"><g transform="matrix(1, 0, 0, 1, 234, 52)"><g clip-path="url(#68fc80d0bc)"><g clip-path="url(#2dd7fa8a82)"><g clip-path="url(#7b2c64d280)"><rect x="-363.948" width="616.896" fill="#090f10" y="-185.635994" height="430.271972" fill-opacity="1"/></g></g></g></g></g></g></g></g></svg>