<svg width="1200" height="800" viewBox="0 0 1200 800" fill="none" xmlns="http://www.w3.org/2000/svg">
  <!-- Background -->
  <rect width="1200" height="800" fill="#0f4068"/>
  
  <!-- Gradient overlay -->
  <defs>
    <linearGradient id="grad1" x1="0%" y1="0%" x2="100%" y2="100%">
      <stop offset="0%" style="stop-color:#0f4068;stop-opacity:1" />
      <stop offset="100%" style="stop-color:#69cce2;stop-opacity:0.5" />
    </linearGradient>
  </defs>
  <rect width="1200" height="800" fill="url(#grad1)"/>
  
  <!-- Airplane icon -->
  <g transform="translate(500, 300)">
    <path d="M100 50 L150 100 L200 90 L210 100 L200 110 L150 100 L100 150 L90 140 L120 100 L90 60 L100 50 Z" 
          fill="#69cce2" opacity="0.3"/>
    <path d="M100 50 L150 100 L200 90 L210 100 L200 110 L150 100 L100 150 L90 140 L120 100 L90 60 L100 50 Z" 
          fill="none" stroke="#ffffff" stroke-width="2"/>
  </g>
  
  <!-- Text -->
  <text x="600" y="500" font-family="Arial, sans-serif" font-size="48" font-weight="bold" 
        fill="#ffffff" text-anchor="middle">
    FLY ELITE
  </text>
  <text x="600" y="550" font-family="Arial, sans-serif" font-size="24" 
        fill="#69cce2" text-anchor="middle">
    Image à venir
  </text>
</svg>
